<?xml version="1.0" encoding="UTF-8"?>
<svg xmlns="http://www.w3.org/2000/svg" xmlns:xlink="http://www.w3.org/1999/xlink" width="50pt" height="50pt" viewBox="0 0 50 50" version="1.1">
<g id="surface2926858">
<path style=" stroke:none;fill-rule:nonzero;fill:rgb(94.901961%,27.843137%,21.960784%);fill-opacity:1;" d="M 25 7.5 C 15.339844 7.5 7.5 15.339844 7.5 25 C 7.5 28.066406 8.304688 30.941406 9.691406 33.449219 L 7.535156 41.230469 C 7.335938 41.957031 8.042969 42.664062 8.769531 42.460938 L 16.554688 40.308594 C 19.058594 41.695312 21.933594 42.5 25 42.5 C 34.660156 42.5 42.5 34.660156 42.5 25 C 42.5 15.339844 34.660156 7.5 25 7.5 Z M 25 8.5 C 34.117188 8.5 41.5 15.882812 41.5 25 C 41.5 34.117188 34.117188 41.5 25 41.5 C 22.03125 41.5 19.253906 40.714844 16.847656 39.34375 C 16.730469 39.277344 16.59375 39.261719 16.46875 39.296875 L 8.5 41.5 L 10.703125 33.535156 C 10.738281 33.40625 10.722656 33.269531 10.65625 33.152344 C 9.285156 30.746094 8.5 27.96875 8.5 25 C 8.5 15.882812 15.882812 8.5 25 8.5 Z M 25 11 C 17.269531 11 11 17.269531 11 25 C 11 27.941406 11.917969 30.664062 13.46875 32.917969 L 12.203125 37.488281 C 12.179688 37.574219 12.203125 37.667969 12.269531 37.730469 C 12.332031 37.796875 12.425781 37.820312 12.511719 37.796875 L 17.082031 36.53125 C 19.335938 38.082031 22.058594 39 25 39 C 32.730469 39 39 32.730469 39 25 C 39 21.148438 37.445312 17.660156 34.925781 15.128906 C 34.832031 15.03125 34.671875 15.03125 34.574219 15.128906 C 34.476562 15.226562 34.476562 15.382812 34.570312 15.480469 C 37 17.921875 38.5 21.285156 38.5 25 C 38.5 32.457031 32.457031 38.5 25 38.5 C 22.117188 38.5 19.453125 37.597656 17.261719 36.058594 C 17.199219 36.015625 17.121094 36.003906 17.050781 36.023438 L 12.804688 37.195312 L 13.976562 32.949219 C 14 32.878906 13.984375 32.800781 13.941406 32.738281 C 12.40625 30.546875 11.5 27.882812 11.5 25 C 11.5 17.542969 17.542969 11.5 25 11.5 C 26.277344 11.5 27.511719 11.679688 28.679688 12.011719 C 28.816406 12.050781 28.953125 11.972656 28.992188 11.839844 C 29.027344 11.707031 28.953125 11.570312 28.816406 11.53125 C 27.605469 11.1875 26.324219 11 25 11 Z M 30.246094 12.039062 C 30.128906 12.039062 30.027344 12.125 30.003906 12.242188 C 29.980469 12.359375 30.042969 12.476562 30.152344 12.519531 C 30.660156 12.730469 31.152344 12.972656 31.628906 13.238281 C 31.703125 13.289062 31.804688 13.292969 31.882812 13.246094 C 31.964844 13.199219 32.011719 13.113281 32.011719 13.023438 C 32.007812 12.929688 31.957031 12.847656 31.875 12.804688 C 31.382812 12.527344 30.871094 12.277344 30.347656 12.058594 C 30.316406 12.046875 30.28125 12.039062 30.25 12.039062 Z M 32.75 13.390625 C 32.640625 13.390625 32.542969 13.460938 32.507812 13.566406 C 32.476562 13.671875 32.515625 13.789062 32.609375 13.847656 C 32.949219 14.082031 33.277344 14.324219 33.589844 14.585938 C 33.699219 14.675781 33.855469 14.660156 33.941406 14.550781 C 34.03125 14.445312 34.015625 14.289062 33.910156 14.199219 C 33.582031 13.929688 33.242188 13.675781 32.890625 13.4375 C 32.851562 13.40625 32.800781 13.390625 32.75 13.390625 Z M 19.253906 17.003906 C 18.921875 17.003906 18.414062 17.128906 17.988281 17.601562 C 17.636719 17.988281 16.5 19.085938 16.5 21.199219 C 16.5 23.339844 18.011719 25.332031 18.207031 25.597656 L 18.207031 25.601562 C 18.214844 25.609375 18.289062 25.71875 18.386719 25.867188 C 18.488281 26.015625 18.625 26.214844 18.792969 26.449219 C 19.136719 26.921875 19.617188 27.539062 20.21875 28.207031 C 21.429688 29.535156 23.136719 31.042969 25.25 31.886719 L 25.25 31.890625 C 26.976562 32.578125 28.023438 32.859375 28.753906 32.957031 C 29.480469 33.058594 29.886719 32.96875 30.234375 32.933594 L 30.238281 32.933594 C 30.695312 32.890625 31.296875 32.628906 31.871094 32.25 C 32.449219 31.875 32.988281 31.390625 33.191406 30.8125 C 33.367188 30.3125 33.453125 29.847656 33.488281 29.480469 C 33.503906 29.296875 33.503906 29.132812 33.492188 29 C 33.484375 28.867188 33.476562 28.769531 33.410156 28.648438 L 33.40625 28.648438 C 33.320312 28.5 33.183594 28.410156 33.039062 28.328125 C 32.894531 28.25 32.726562 28.171875 32.527344 28.070312 C 32.320312 27.96875 31.722656 27.667969 31.125 27.375 C 30.527344 27.085938 29.957031 26.808594 29.726562 26.722656 L 29.722656 26.722656 C 29.53125 26.652344 29.339844 26.582031 29.117188 26.609375 C 28.890625 26.636719 28.675781 26.785156 28.515625 27.027344 C 28.273438 27.398438 27.480469 28.34375 27.25 28.613281 C 27.152344 28.722656 27.097656 28.75 27.03125 28.757812 C 26.964844 28.765625 26.851562 28.746094 26.671875 28.65625 L 26.671875 28.660156 C 26.4375 28.539062 26.035156 28.390625 25.476562 28.089844 C 24.921875 27.785156 24.222656 27.339844 23.464844 26.652344 C 22.292969 25.59375 21.484375 24.269531 21.253906 23.867188 C 21.160156 23.707031 21.171875 23.648438 21.195312 23.582031 C 21.21875 23.515625 21.292969 23.429688 21.390625 23.328125 L 21.394531 23.328125 C 21.601562 23.121094 21.820312 22.824219 22.015625 22.59375 L 22.019531 22.589844 C 22.238281 22.328125 22.320312 22.125 22.453125 21.859375 L 22.457031 21.855469 C 22.628906 21.5 22.535156 21.152344 22.421875 20.917969 C 22.410156 20.890625 22.335938 20.714844 22.242188 20.480469 C 22.148438 20.25 22.03125 19.953125 21.902344 19.632812 C 21.648438 18.996094 21.359375 18.289062 21.175781 17.871094 C 21.011719 17.5 20.824219 17.273438 20.613281 17.148438 C 20.398438 17.023438 20.1875 17.019531 20.042969 17.011719 C 19.796875 17.003906 19.523438 17.003906 19.253906 17.003906 Z M 19.253906 17.503906 C 19.523438 17.503906 19.792969 17.503906 20.023438 17.515625 C 20.167969 17.519531 20.261719 17.523438 20.359375 17.582031 C 20.453125 17.636719 20.582031 17.761719 20.71875 18.074219 L 20.71875 18.078125 C 20.894531 18.472656 21.183594 19.183594 21.4375 19.820312 C 21.566406 20.136719 21.683594 20.4375 21.78125 20.667969 C 21.875 20.902344 21.933594 21.054688 21.972656 21.132812 L 21.972656 21.136719 C 22.058594 21.3125 22.101562 21.445312 22.007812 21.636719 C 21.867188 21.917969 21.8125 22.054688 21.632812 22.269531 L 21.636719 22.269531 C 21.425781 22.519531 21.199219 22.816406 21.039062 22.976562 L 21.035156 22.976562 C 20.933594 23.082031 20.796875 23.210938 20.726562 23.410156 C 20.652344 23.609375 20.675781 23.867188 20.820312 24.117188 C 21.066406 24.542969 21.890625 25.902344 23.128906 27.023438 C 23.921875 27.738281 24.652344 28.210938 25.238281 28.527344 C 25.824219 28.84375 26.277344 29.019531 26.445312 29.105469 L 26.449219 29.105469 C 26.675781 29.21875 26.882812 29.28125 27.09375 29.253906 C 27.304688 29.230469 27.484375 29.101562 27.628906 28.941406 C 27.871094 28.660156 28.636719 27.75 28.933594 27.300781 C 29.046875 27.132812 29.101562 27.113281 29.171875 27.105469 C 29.242188 27.097656 29.371094 27.125 29.550781 27.191406 C 29.695312 27.246094 30.308594 27.535156 30.90625 27.824219 C 31.5 28.117188 32.101562 28.417969 32.300781 28.519531 C 32.507812 28.625 32.679688 28.703125 32.796875 28.765625 C 32.914062 28.832031 32.964844 28.882812 32.976562 28.902344 C 32.957031 28.871094 32.988281 28.9375 32.996094 29.039062 C 33.003906 29.136719 33 29.273438 32.988281 29.4375 C 32.960938 29.761719 32.878906 30.1875 32.71875 30.648438 C 32.582031 31.03125 32.125 31.488281 31.601562 31.832031 C 31.074219 32.175781 30.476562 32.410156 30.191406 32.4375 C 29.796875 32.472656 29.484375 32.550781 28.820312 32.460938 C 28.15625 32.371094 27.140625 32.105469 25.4375 31.425781 C 23.425781 30.621094 21.765625 29.164062 20.589844 27.871094 C 20 27.222656 19.53125 26.617188 19.199219 26.15625 C 19.03125 25.925781 18.898438 25.734375 18.800781 25.589844 C 18.703125 25.441406 18.652344 25.359375 18.609375 25.300781 C 18.398438 25.015625 17 23.097656 17 21.199219 C 17 19.257812 17.964844 18.367188 18.359375 17.9375 C 18.679688 17.582031 19.046875 17.503906 19.253906 17.503906 Z M 19.253906 17.503906 "/>
</g>
</svg>
