<?xml version="1.0" encoding="UTF-8"?>
<svg xmlns="http://www.w3.org/2000/svg" xmlns:xlink="http://www.w3.org/1999/xlink" width="38pt" height="38pt" viewBox="0 0 38 38" version="1.1">
<g id="surface109464">
<path style=" stroke:none;fill-rule:nonzero;fill:rgb(94.901961%,27.843137%,21.960784%);fill-opacity:1;" d="M 12.160156 2.28125 C 6.710938 2.28125 2.28125 6.710938 2.28125 12.160156 L 2.28125 25.839844 C 2.28125 31.289062 6.710938 35.71875 12.160156 35.71875 L 25.839844 35.71875 C 31.289062 35.71875 35.71875 31.289062 35.71875 25.839844 L 35.71875 12.160156 C 35.71875 6.710938 31.289062 2.28125 25.839844 2.28125 Z M 12.160156 3.800781 L 25.839844 3.800781 C 30.464844 3.800781 34.199219 7.535156 34.199219 12.160156 L 34.199219 25.839844 C 34.199219 30.464844 30.464844 34.199219 25.839844 34.199219 L 12.160156 34.199219 C 7.535156 34.199219 3.800781 30.464844 3.800781 25.839844 L 3.800781 12.160156 C 3.800781 7.535156 7.535156 3.800781 12.160156 3.800781 Z M 28.121094 8.359375 C 27.28125 8.359375 26.601562 9.039062 26.601562 9.878906 C 26.601562 10.71875 27.28125 11.398438 28.121094 11.398438 C 28.960938 11.398438 29.640625 10.71875 29.640625 9.878906 C 29.640625 9.039062 28.960938 8.359375 28.121094 8.359375 Z M 19 10.640625 C 14.390625 10.640625 10.640625 14.390625 10.640625 19 C 10.640625 23.609375 14.390625 27.359375 19 27.359375 C 23.609375 27.359375 27.359375 23.609375 27.359375 19 C 27.359375 14.390625 23.609375 10.640625 19 10.640625 Z M 19 12.160156 C 22.785156 12.160156 25.839844 15.214844 25.839844 19 C 25.839844 22.785156 22.785156 25.839844 19 25.839844 C 15.214844 25.839844 12.160156 22.785156 12.160156 19 C 12.160156 15.214844 15.214844 12.160156 19 12.160156 Z M 19 12.160156 "/>
</g>
</svg>
